<svg width="17" height="18" viewBox="0 0 17 18" fill="none" xmlns="http://www.w3.org/2000/svg">
<path fill-rule="evenodd" clip-rule="evenodd" d="M8.75005 17.25C8.29441 17.25 7.92505 16.7883 7.92505 16.2188L7.92505 1.78125C7.92505 1.21171 8.29441 0.75 8.75005 0.75C9.20568 0.75 9.57505 1.21171 9.57505 1.78125L9.57505 16.2188C9.57505 16.7883 9.20568 17.25 8.75005 17.25Z" fill="#F05443"/>
<path fill-rule="evenodd" clip-rule="evenodd" d="M0.802046 8.73151C0.399318 8.37353 0.399318 7.79313 0.802046 7.43515L8.0208 1.01849C8.42352 0.660504 9.07648 0.660504 9.4792 1.01849L16.698 7.43515C17.1007 7.79313 17.1007 8.37353 16.698 8.73151C16.2952 9.0895 15.6423 9.0895 15.2395 8.73151L8.75 2.96303L2.26045 8.73151C1.85773 9.0895 1.20477 9.0895 0.802046 8.73151Z" fill="#F05443"/>
</svg>
