<svg width="17" height="18" viewBox="0 0 17 18" fill="none" xmlns="http://www.w3.org/2000/svg">
<path fill-rule="evenodd" clip-rule="evenodd" d="M8.24995 0.75C8.70559 0.75 9.07495 1.21171 9.07495 1.78125L9.07495 16.2188C9.07495 16.7883 8.70559 17.25 8.24995 17.25C7.79432 17.25 7.42495 16.7883 7.42495 16.2187L7.42495 1.78125C7.42495 1.21171 7.79432 0.75 8.24995 0.75Z" fill="#F05443"/>
<path fill-rule="evenodd" clip-rule="evenodd" d="M16.198 9.26849C16.6007 9.62647 16.6007 10.2069 16.198 10.5648L8.9792 16.9815C8.57648 17.3395 7.92352 17.3395 7.5208 16.9815L0.302046 10.5648C-0.100683 10.2069 -0.100683 9.62647 0.302046 9.26848C0.704774 8.9105 1.35773 8.9105 1.76045 9.26848L8.25 15.037L14.7395 9.26849C15.1423 8.9105 15.7952 8.9105 16.198 9.26849Z" fill="#F05443"/>
</svg>
