<svg xmlns="http://www.w3.org/2000/svg" viewBox="0 0 44 44"><defs><style>.cls-1{fill:#151515;opacity:0;}.cls-2{fill:#b41f5e;}.cls-3{fill:#f05544;}.cls-4{fill:#fdbd12;}</style></defs><title>Big Data Analytics</title><g id="Layer_1" data-name="Layer 1"><rect class="cls-1" x="-0.04" y="-0.06" width="44" height="44"/></g><g id="Layer_4" data-name="Layer 4"><path class="cls-2" d="M22,42a1,1,0,0,1-.45-.1L9.68,36a1,1,0,0,1-.56-.9V26.12a1,1,0,0,1,2,0v8.33L22,39.88l10.87-5.43V26.12a1,1,0,1,1,2,0v8.94a1,1,0,0,1-.55.9L22.45,41.9A1,1,0,0,1,22,42Z"/><path class="cls-2" d="M21.94,41.28a1,1,0,0,1-1-1V31.19a1,1,0,0,1,2,0v9.09A1,1,0,0,1,21.94,41.28Z"/><path class="cls-3" d="M22,32.5a1,1,0,0,1-.45-.1L9.68,26.46a1,1,0,0,1,.05-1.82L18,21.08a1,1,0,1,1,.79,1.84L12.5,25.63,22,30.38l9.5-4.75-6.33-2.71A1,1,0,1,1,26,21.08l8.31,3.56a1,1,0,0,1,0,1.82L22.45,32.4A1,1,0,0,1,22,32.5Z"/><path class="cls-4" d="M21.94,23.47a1,1,0,0,1-1-1V13.38a1,1,0,1,1,2,0v9.09A1,1,0,0,1,21.94,23.47Z"/><path class="cls-2" d="M22,14.69a1,1,0,0,1-.45-.11L9.68,8.65a1,1,0,0,1,.07-1.83L21.63,2.07a1,1,0,0,1,.74,0L34.25,6.82a1,1,0,0,1,.07,1.83L22.45,14.58A1,1,0,0,1,22,14.69ZM12.56,7.85,22,12.57l9.44-4.72L22,4.08Z"/><path class="cls-2" d="M22,24.19a1,1,0,0,1-.45-.11L9.68,18.15a1,1,0,0,1-.56-.9V8.31a1,1,0,1,1,2,0v8.32L22,22.07l10.87-5.44V8.31a1,1,0,0,1,2,0v8.94a1,1,0,0,1-.55.9L22.45,24.08A1,1,0,0,1,22,24.19Z"/></g></svg>