<?xml version="1.0" encoding="utf-8"?>
<!-- Generator: Adobe Illustrator 23.0.3, SVG Export Plug-In . SVG Version: 6.00 Build 0)  -->
<svg class="card-4" version="1.1" id="Layer_1" xmlns="http://www.w3.org/2000/svg" xmlns:xlink="http://www.w3.org/1999/xlink" x="0px" y="0px"
	 viewBox="0 0 220 225" style="enable-background:new 0 0 220 225;" xml:space="preserve">
<style type="text/css">
	.st0{filter:url(#filter-3);}
	.st1{fill-rule:evenodd;clip-rule:evenodd;}
	.st2{fill-rule:evenodd;clip-rule:evenodd;fill:#FFFFFF;}
	.st3{fill-rule:evenodd;clip-rule:evenodd;fill:#F05444;}
</style>
<filter  filterUnits="objectBoundingBox" height="117.6%" id="filter-3" width="118.0%" x="-9.0%" y="-5.9%">
	<feOffset  dx="0" dy="6" in="SourceAlpha" result="shadowOffsetOuter1"></feOffset>
	<feGaussianBlur  in="shadowOffsetOuter1" result="shadowBlurOuter1" stdDeviation="5"></feGaussianBlur>
	<feColorMatrix  in="shadowBlurOuter1" type="matrix" values="0 0 0 0 0   0 0 0 0 0   0 0 0 0 0  0 0 0 0.157976676 0">
		</feColorMatrix>
</filter>
<title>BBEBC28B-D7B5-4FD6-B65C-DBABD846DFB5</title>
<desc>Created with sketchtool.</desc>
<g id="Page-1">
	<g id="Home" transform="translate(-961.000000, -3810.000000)">
		<g transform="translate(971.000000, 3814.000000)">
			<g id="Mask">
				<g>
					<g>
						<g class="st0">
							<path class="st1" d="M3,0h194c1.7,0,3,1.3,3,3v199c0,1.7-1.3,3-3,3H3c-1.7,0-3-1.3-3-3V3C0,1.3,1.3,0,3,0z"/>
						</g>
						<g>
							<path class="st2 backgroung-color" d="M3,0h194c1.7,0,3,1.3,3,3v199c0,1.7-1.3,3-3,3H3c-1.7,0-3-1.3-3-3V3C0,1.3,1.3,0,3,0z"/>
						</g>
					</g>
				</g>
			</g>
			<path id="Path-8" class="st3 shape-color" d="M111,0v35h40v38h49V3c0-1.7-1.3-3-3-3H111z"/>
			<rect id="Rectangle shape-color" x="111" y="45" class="st3" width="28" height="28"/>
		</g>
	</g>
</g>
</svg>
