<svg xmlns="http://www.w3.org/2000/svg" viewBox="0 0 44 44"><defs><style>.cls-1{fill:#151515;opacity:0;}.cls-2{fill:#b41f5e;}.cls-3{fill:#fdbd12;}.cls-4{fill:#f05544;}</style></defs><title>Lead generation</title><g id="Layer_1" data-name="Layer 1"><rect class="cls-1" width="44" height="44"/></g><g id="Layer_4" data-name="Layer 4"><path class="cls-2" d="M25.16,34.58H13.58a12.58,12.58,0,0,1,0-25.16H25.16a1,1,0,0,1,1,1v5.26a1,1,0,0,1-1,1H14.63a5.32,5.32,0,0,0,0,10.64H25.16a1,1,0,0,1,1,1v5.26A1,1,0,0,1,25.16,34.58ZM13.58,11.42a10.58,10.58,0,0,0,0,21.16H24.16V29.32H14.63a7.32,7.32,0,0,1,0-14.64h9.53V11.42Z"/><path class="cls-2" d="M19.89,16.68a1,1,0,0,1-1-1V11.47a1,1,0,1,1,2,0v4.21A1,1,0,0,1,19.89,16.68Z"/><path class="cls-2" d="M19.89,34.58a1,1,0,0,1-1-1V29.37a1,1,0,0,1,2,0v4.21A1,1,0,0,1,19.89,34.58Z"/><path class="cls-3" d="M42,17.74H32.53a1,1,0,0,1,0-2H42a1,1,0,1,1,0,2Z"/><path class="cls-3" d="M42,26.16H32.53a1,1,0,0,1,0-2H42a1,1,0,0,1,0,2Z"/><path class="cls-4" d="M39.89,22H29.37a1,1,0,0,1,0-2H39.89a1,1,0,0,1,0,2Z"/></g></svg>