<svg xmlns="http://www.w3.org/2000/svg" viewBox="0 0 44 44"><defs><style>.cls-1{fill:#151515;opacity:0;}.cls-2{fill:#b41f5e;}.cls-3{fill:#f05544;}.cls-4{fill:#fdbd12;}</style></defs><title>Supervised Learning</title><g id="Layer_1" data-name="Layer 1"><rect class="cls-1" width="44" height="44"/></g><g id="Layer_4" data-name="Layer 4"><path class="cls-2" d="M22,23H5a1,1,0,0,1-1-1V6A1,1,0,0,1,5,5H22a1,1,0,0,1,1,1V22A1,1,0,0,1,22,23ZM6,21H21V7H6Z"/><path class="cls-3" d="M14.36,33a4,4,0,1,1,4-4A4,4,0,0,1,14.36,33Zm0-6a2,2,0,1,0,2,2A2,2,0,0,0,14.36,27Z"/><path class="cls-2" d="M20,40a1,1,0,0,1-1-1c0-.41-.28-4-4.63-4s-4.62,3.6-4.62,4a1,1,0,0,1-1,1,1,1,0,0,1-1-1c0-2.08,1.38-6,6.62-6s6.57,3.91,6.63,6a1,1,0,0,1-1,1Z"/><path class="cls-4" d="M29.61,33a4,4,0,1,1,4-4A4,4,0,0,1,29.61,33Zm0-6a2,2,0,1,0,2,2A2,2,0,0,0,29.61,27Z"/><path class="cls-2" d="M35.23,40a1,1,0,0,1-1-1c0-.41-.28-4-4.63-4S25,38.58,25,39a1,1,0,0,1-1,1h0a1,1,0,0,1-1-1c0-2.08,1.38-6,6.62-6s6.57,3.91,6.63,6a1,1,0,0,1-1,1Z"/><path class="cls-2" d="M33,14a4.5,4.5,0,1,1,4.5-4.5A4.5,4.5,0,0,1,33,14Zm0-7a2.5,2.5,0,1,0,2.5,2.5A2.5,2.5,0,0,0,33,7Z"/><path class="cls-2" d="M39,23a1,1,0,0,1-1-1c0-.51-.18-5-5-5s-5,4.8-5,5a1,1,0,0,1-2,0c0-2.42,1.46-7,7-7s7,4.58,7,7A1,1,0,0,1,39,23Z"/><path class="cls-3" d="M16,18H11a1,1,0,1,1,0-2h5a1,1,0,0,1,0,2Z"/></g></svg>