<svg xmlns="http://www.w3.org/2000/svg" viewBox="0 0 44 44"><defs><style>.cls-1{fill:#151515;opacity:0;}.cls-2{fill:#b41f5e;}.cls-3{fill:#f05544;}.cls-4{fill:#fdbd12;}</style></defs><title>Text Categorization</title><g id="Layer_1" data-name="Layer 1"><rect class="cls-1" width="44" height="44"/></g><g id="Layer_4" data-name="Layer 4"><path class="cls-2" d="M39,39.19a1,1,0,0,1-.73-.32l-5.5-5.93L4,33H4a1,1,0,0,1-.71-.3A1,1,0,0,1,3,32V9A1,1,0,0,1,4,8H24a1,1,0,0,1,0,2H5V31l28.17,0h0a1,1,0,0,1,.74.32L38,35.64V26.85a1,1,0,1,1,2,0V38.19a1,1,0,0,1-.63.93A1,1,0,0,1,39,39.19Z"/><path class="cls-3" d="M30,22.92a1,1,0,0,1-1-1v-5.3a1,1,0,0,1,1-1c4.29,0,7.84-.32,7.84-4.31A4,4,0,0,0,36.5,8c-2.17-1.78-6.26-1-6.31-1a1,1,0,0,1-.39-2c.21,0,5.06-1,8,1.4a6,6,0,0,1,2.07,4.88c0,5.74-5.29,6.26-8.84,6.3v4.31A1,1,0,0,1,30,22.92Z"/><path class="cls-4" d="M21,17.19H10a1,1,0,0,1,0-2H21a1,1,0,0,1,0,2Z"/><path class="cls-2" d="M17,23.19H10a1,1,0,1,1,0-2h7a1,1,0,0,1,0,2Z"/></g></svg>