<svg xmlns="http://www.w3.org/2000/svg" viewBox="0 0 44 44"><defs><style>.cls-1{fill:#151515;opacity:0;}.cls-2{fill:#b41f5e;}.cls-3{fill:#f05544;}.cls-4{fill:#fdbd12;}</style></defs><title>Unsupervised Learning</title><g id="Layer_1" data-name="Layer 1"><rect class="cls-1" width="44" height="44"/></g><g id="Layer_4" data-name="Layer 4"><path class="cls-2" d="M39,22H5a1,1,0,0,1-1-1V5A1,1,0,0,1,5,4H39a1,1,0,0,1,1,1V21A1,1,0,0,1,39,22ZM6,20H38V6H6Z"/><path class="cls-3" d="M18,11H11.62a1,1,0,0,1,0-2H18a1,1,0,0,1,0,2Z"/><path class="cls-4" d="M24.75,17H12a1,1,0,1,1,0-2H24.75a1,1,0,0,1,0,2Z"/><path class="cls-3" d="M14.36,33a4,4,0,1,1,4-4A4,4,0,0,1,14.36,33Zm0-6a2,2,0,1,0,2,2A2,2,0,0,0,14.36,27Z"/><path class="cls-2" d="M20,40a1,1,0,0,1-1-1c0-.41-.28-4-4.63-4s-4.62,3.6-4.62,4a1,1,0,0,1-1,1,1,1,0,0,1-1-1c0-2.08,1.38-6,6.62-6s6.57,3.91,6.63,6a1,1,0,0,1-1,1Z"/><path class="cls-4" d="M29.61,33a4,4,0,1,1,4-4A4,4,0,0,1,29.61,33Zm0-6a2,2,0,1,0,2,2A2,2,0,0,0,29.61,27Z"/><path class="cls-2" d="M35.23,40a1,1,0,0,1-1-1c0-.41-.28-4-4.63-4S25,38.58,25,39a1,1,0,0,1-1,1h0a1,1,0,0,1-1-1c0-2.08,1.38-6,6.62-6s6.57,3.91,6.63,6a1,1,0,0,1-1,1Z"/></g></svg>